<?xml version="1.0" encoding="UTF-8" standalone="no"?>
<!-- Created with Inkscape (http://www.inkscape.org/) -->

<svg
   xmlns:dc="http://purl.org/dc/elements/1.1/"
   xmlns:cc="http://creativecommons.org/ns#"
   xmlns:rdf="http://www.w3.org/1999/02/22-rdf-syntax-ns#"
   xmlns:svg="http://www.w3.org/2000/svg"
   xmlns="http://www.w3.org/2000/svg"
   xmlns:xlink="http://www.w3.org/1999/xlink"
   xmlns:sodipodi="http://sodipodi.sourceforge.net/DTD/sodipodi-0.dtd"
   xmlns:inkscape="http://www.inkscape.org/namespaces/inkscape"
   width="860"
   height="625.50989"
   viewBox="0 0 860.00001 625.5099"
   id="svg2"
   version="1.1"
   inkscape:version="0.91 r13725"
   sodipodi:docname="openclipart.svg">
  <defs
     id="defs4">
    <linearGradient
       inkscape:collect="always"
       id="linearGradient4272">
      <stop
         style="stop-color:#003380;stop-opacity:1;"
         offset="0"
         id="stop4274" />
      <stop
         style="stop-color:#000057;stop-opacity:1"
         offset="1"
         id="stop4276" />
    </linearGradient>
    <linearGradient
       inkscape:collect="always"
       xlink:href="#linearGradient4272"
       id="linearGradient4342"
       gradientUnits="userSpaceOnUse"
       x1="574.87781"
       y1="118.98125"
       x2="140.71425"
       y2="425.8656"
       gradientTransform="matrix(1.9642271,0,0,1.9642271,-133.46684,-411.06358)" />
    <linearGradient
       inkscape:collect="always"
       xlink:href="#linearGradient4272"
       id="linearGradient4344"
       gradientUnits="userSpaceOnUse"
       x1="574.87781"
       y1="118.98125"
       x2="140.71425"
       y2="425.8656"
       gradientTransform="matrix(1.9642271,0,0,1.9642271,-133.46684,-411.06358)" />
    <linearGradient
       inkscape:collect="always"
       xlink:href="#linearGradient4272"
       id="linearGradient4346"
       gradientUnits="userSpaceOnUse"
       x1="574.87781"
       y1="118.98125"
       x2="140.71425"
       y2="425.8656"
       gradientTransform="matrix(4.7215812,0,0,4.7215812,-1405.3341,-625.63802)" />
  </defs>
  <sodipodi:namedview
     id="base"
     pagecolor="#ffffff"
     bordercolor="#666666"
     borderopacity="1.0"
     inkscape:pageopacity="0.0"
     inkscape:pageshadow="2"
     inkscape:zoom="0.27977769"
     inkscape:cx="765.02045"
     inkscape:cy="232.72363"
     inkscape:document-units="px"
     inkscape:current-layer="layer1"
     showgrid="false"
     inkscape:window-width="1024"
     inkscape:window-height="768"
     inkscape:window-x="0"
     inkscape:window-y="22"
     inkscape:window-maximized="0"
     units="px"
     fit-margin-top="0"
     fit-margin-left="0"
     fit-margin-right="0"
     fit-margin-bottom="0" />
  <metadata
     id="metadata7">
    <rdf:RDF>
      <cc:Work
         rdf:about="">
        <dc:format>image/svg+xml</dc:format>
        <dc:type
           rdf:resource="http://purl.org/dc/dcmitype/StillImage" />
        <dc:title></dc:title>
        <cc:license
           rdf:resource="http://creativecommons.org/publicdomain/zero/1.0/" />
      </cc:Work>
      <cc:License
         rdf:about="http://creativecommons.org/publicdomain/zero/1.0/">
        <cc:permits
           rdf:resource="http://creativecommons.org/ns#Reproduction" />
        <cc:permits
           rdf:resource="http://creativecommons.org/ns#Distribution" />
        <cc:permits
           rdf:resource="http://creativecommons.org/ns#DerivativeWorks" />
      </cc:License>
    </rdf:RDF>
  </metadata>
  <g
     inkscape:label="Camada 1"
     inkscape:groupmode="layer"
     id="layer1"
     transform="translate(-138.41847,199.1958)">
    <path
       style="fill:#4d4d4d;fill-opacity:1;fill-rule:evenodd;stroke:none;stroke-width:1px;stroke-linecap:butt;stroke-linejoin:miter;stroke-opacity:1"
       d="m 984.39321,346.63492 11.80072,-19.65761 -26.44034,11.65492 z"
       id="path4214"
       inkscape:connector-curvature="0"
       sodipodi:nodetypes="cccc" />
    <path
       style="fill:#4d4d4d;fill-opacity:1;fill-rule:evenodd;stroke:none;stroke-width:1px;stroke-linecap:butt;stroke-linejoin:miter;stroke-opacity:1"
       d="m 986.56309,-98.374909 11.7975,-19.658651 -22.88537,13.52017 z"
       id="path3400"
       inkscape:connector-curvature="0"
       sodipodi:nodetypes="cccc" />
    <path
       inkscape:connector-curvature="0"
       style="color:#000000;text-indent:0;text-transform:none;block-progression:tb;fill:#4d4d4d;fill-opacity:1"
       d="m 253.26294,-179.54775 c -46.69643,-0.40133 -94.57327,20.09505 -108.59636,58.36347 -20.86939,46.129844 12.60662,100.097517 69.69053,116.6702669 0.18887,0.047216 0.47216,0 0.66103,0 C 277.29579,18.007929 354.82416,29.009213 422.29555,98.841399 l 25.30768,26.251991 -22.80524,23.23018 c -67.70748,69.73775 -144.99976,80.45574 -207.32463,102.83604 -0.14165,0.0944 -0.47216,-0.0472 -0.61381,0 -56.98948,16.47832 -89.99333,70.11548 -69.73775,116.24533 0.0472,0.0944 -0.0944,0.33051 0,0.47216 17.3282,46.64922 85.36619,67.28253 140.0421,54.91199 0.18886,-0.0472 0.47216,0 0.6138,0 55.99796,-9.77368 101.84451,-55.33694 88.86016,-101.37235 -6.42135,-22.75802 -14.58969,-33.28715 -22.19143,-39.56685 -3.82448,-3.16346 -7.12959,-5.14653 -9.2543,-6.94073 -2.17193,-1.7942 -11.14293,-6.84629 -11.14293,-6.84629 5.57146,-4.06056 8.82936,-5.99641 13.59815,-8.971 7.17681,-4.67437 19.64178,-10.38748 35.78959,-17.32821 32.01232,-13.69258 79.1337,-33.09828 133.29023,-64.26072 97.9256,55.66744 225.17221,127.76599 295.52377,167.61613 70.35156,39.85015 142.35568,19.78343 172.14885,1.51091 L 607.14545,125.18782 986.57172,-98.379047 c -58.8309,-36.261743 -125.92457,-20.916603 -170.63794,0.8971 C 716.59171,-41.106267 616.87191,14.986117 517.34098,71.172933 471.91937,46.337416 423.19265,23.579395 380.98172,5.4013074 c -16.19503,-6.9407244 -28.66,-12.6066218 -35.78959,-17.3282034 -3.5884,-2.313574 -12.65384,-7.412882 -12.65384,-7.412882 8.26277,-4.816013 17.04491,-13.739801 23.41905,-20.491663 6.37413,-6.799076 13.88144,-16.856044 18.2253,-34.373111 11.37901,-46.318708 -32.90942,-92.023618 -88.86016,-101.882278 -10.85964,-2.39384 -22.52194,-2.74796 -32.10675,-3.46092 z m -6.18527,39.0522 c 20.82218,-0.94432 42.30537,4.72158 56.1396,15.8173 20.72774,16.66718 24.64666,39.566846 16.66718,58.358739 -7.97947,18.791893 -27.14909,32.720558 -54.29818,32.673342 l -0.6138,0 c -24.88274,1.133179 -49.10445,-10.340263 -63.55249,-27.243524 -14.44804,-16.856045 -18.55581,-37.819865 -4.29664,-55.856307 l 0,-0.51937 c 9.82089,-14.96741 29.13216,-22.23865 49.95433,-23.23018 z m 16.05338,420.83453 c 1.84142,0 3.73005,-0.0472 4.91044,0 27.14909,0 46.36593,13.88145 54.29819,32.67334 7.97947,18.7919 4.10777,41.73878 -16.61997,58.31153 -13.88145,11.09572 -35.93123,17.3282 -56.80062,16.33667 -20.82217,-0.99153 -39.56685,-8.73492 -49.34052,-23.74955 l -0.61381,-0.47216 c -13.7398,-17.51707 -9.77367,-37.30049 3.68283,-53.92046 13.45651,-16.57275 36.49783,-28.80164 60.48346,-29.17937 z"
       id="path3398" />
    <path
       sodipodi:nodetypes="cccc"
       inkscape:connector-curvature="0"
       id="path4260"
       d="m 984.39321,346.63492 11.80072,-19.65761 -26.44034,11.65492 z"
       style="fill:url(#linearGradient4342);fill-opacity:1;fill-rule:evenodd;stroke:none;stroke-width:1px;stroke-linecap:butt;stroke-linejoin:miter;stroke-opacity:1" />
    <path
       sodipodi:nodetypes="cccc"
       inkscape:connector-curvature="0"
       id="path4264"
       d="m 986.56309,-98.374909 11.7975,-19.658651 -22.88537,13.52017 z"
       style="fill:url(#linearGradient4344);fill-opacity:1;fill-rule:evenodd;stroke:none;stroke-width:1px;stroke-linecap:butt;stroke-linejoin:miter;stroke-opacity:1" />
    <path
       id="path4270"
       d="m 253.26294,-179.54775 c -46.69643,-0.40133 -94.57327,20.09505 -108.59636,58.36347 -20.86939,46.129844 12.60662,100.097517 69.69053,116.6702669 0.18887,0.047216 0.47216,0 0.66103,0 C 277.29579,18.007929 354.82416,29.009213 422.29555,98.841399 l 25.30768,26.251991 -22.80524,23.23018 c -67.70748,69.73775 -144.99976,80.45574 -207.32463,102.83604 -0.14165,0.0944 -0.47216,-0.0472 -0.61381,0 -56.98948,16.47832 -89.99333,70.11548 -69.73775,116.24533 0.0472,0.0944 -0.0944,0.33051 0,0.47216 17.3282,46.64922 85.36619,67.28253 140.0421,54.91199 0.18886,-0.0472 0.47216,0 0.6138,0 55.99796,-9.77368 101.84451,-55.33694 88.86016,-101.37235 -6.42135,-22.75802 -14.58969,-33.28715 -22.19143,-39.56685 -3.82448,-3.16346 -7.12959,-5.14653 -9.2543,-6.94073 -2.17193,-1.7942 -11.14293,-6.84629 -11.14293,-6.84629 5.57146,-4.06056 8.82936,-5.99641 13.59815,-8.971 7.17681,-4.67437 19.64178,-10.38748 35.78959,-17.32821 32.01232,-13.69258 79.1337,-33.09828 133.29023,-64.26072 97.9256,55.66744 225.17221,127.76599 295.52377,167.61613 70.35156,39.85015 142.35568,19.78343 172.14885,1.51091 L 607.14545,125.18782 986.57172,-98.379047 c -58.8309,-36.261743 -125.92457,-20.916603 -170.63794,0.8971 C 716.59171,-41.106267 616.87191,14.986117 517.34098,71.172933 471.91937,46.337416 423.19265,23.579395 380.98172,5.4013074 c -16.19503,-6.9407244 -28.66,-12.6066218 -35.78959,-17.3282034 -3.5884,-2.313574 -12.65384,-7.412882 -12.65384,-7.412882 8.26277,-4.816013 17.04491,-13.739801 23.41905,-20.491663 6.37413,-6.799076 13.88144,-16.856044 18.2253,-34.373111 11.37901,-46.318708 -32.90942,-92.023618 -88.86016,-101.882278 -10.85964,-2.39384 -22.52194,-2.74796 -32.10675,-3.46092 z m -6.18527,39.0522 c 20.82218,-0.94432 42.30537,4.72158 56.1396,15.8173 20.72774,16.66718 24.64666,39.566846 16.66718,58.358739 -7.97947,18.791893 -27.14909,32.720558 -54.29818,32.673342 l -0.6138,0 c -24.88274,1.133179 -49.10445,-10.340263 -63.55249,-27.243524 -14.44804,-16.856045 -18.55581,-37.819865 -4.29664,-55.856307 l 0,-0.51937 c 9.82089,-14.96741 29.13216,-22.23865 49.95433,-23.23018 z m 16.05338,420.83453 c 1.84142,0 3.73005,-0.0472 4.91044,0 27.14909,0 46.36593,13.88145 54.29819,32.67334 7.97947,18.7919 4.10777,41.73878 -16.61997,58.31153 -13.88145,11.09572 -35.93123,17.3282 -56.80062,16.33667 -20.82217,-0.99153 -39.56685,-8.73492 -49.34052,-23.74955 l -0.61381,-0.47216 c -13.7398,-17.51707 -9.77367,-37.30049 3.68283,-53.92046 13.45651,-16.57275 36.49783,-28.80164 60.48346,-29.17937 z"
       style="color:#000000;text-indent:0;text-transform:none;block-progression:tb;fill:url(#linearGradient4346);fill-opacity:1"
       inkscape:connector-curvature="0" />
    <path
       id="path4461"
       d="m 265.04834,-199.19003 c -46.69643,-0.40133 -94.57327,20.09505 -108.59636,58.36347 -20.86939,46.129844 12.60662,100.097517 69.69053,116.670267 0.18887,0.04722 0.47216,0 0.66103,0 62.27765,22.5219422 139.80602,33.5232264 207.27741,103.355412 l 25.30768,26.251991 -22.80524,23.23018 c -67.70748,69.73775 -144.99976,80.45574 -207.32463,102.83604 -0.14165,0.0944 -0.47216,-0.0472 -0.61381,0 -56.98948,16.47832 -89.99333,70.11548 -69.73775,116.24533 0.0472,0.0944 -0.0944,0.33051 0,0.47216 17.3282,46.64922 85.36619,67.28253 140.0421,54.91199 0.18886,-0.0472 0.47216,0 0.6138,0 55.99796,-9.77368 101.84451,-55.33694 88.86016,-101.37235 -6.42135,-22.75802 -14.58969,-33.28715 -22.19143,-39.56685 -3.82448,-3.16346 -7.12959,-5.14653 -9.2543,-6.94073 -2.17193,-1.7942 -11.14293,-6.84629 -11.14293,-6.84629 5.57146,-4.06056 8.82936,-5.99641 13.59815,-8.971 7.17681,-4.67437 19.64178,-10.38748 35.78959,-17.32821 32.01232,-13.69258 79.1337,-33.09828 133.29023,-64.26072 97.9256,55.66744 225.17221,127.76599 295.52377,167.61613 70.35156,39.85015 142.35568,19.78343 172.14885,1.51091 L 618.93085,105.54554 998.35712,-118.02133 c -58.8309,-36.26174 -125.92457,-20.9166 -170.63794,0.8971 C 728.37711,-60.748547 628.65731,-4.6561628 529.12638,51.530653 483.70477,26.695136 434.97805,3.937115 392.76712,-14.240973 c -16.19503,-6.940724 -28.66,-12.606621 -35.78959,-17.328203 -3.5884,-2.313574 -12.65384,-7.412882 -12.65384,-7.412882 8.26277,-4.816013 17.04491,-13.739801 23.41905,-20.491663 6.37413,-6.799076 13.88144,-16.856044 18.2253,-34.373111 11.37901,-46.318708 -32.90942,-92.023618 -88.86016,-101.882278 -10.85964,-2.39384 -22.52194,-2.74796 -32.10675,-3.46092 z m -6.18527,39.0522 c 20.82218,-0.94432 42.30537,4.72158 56.1396,15.8173 20.72774,16.66718 24.64666,39.56685 16.66718,58.358739 -7.97947,18.791893 -27.14909,32.720558 -54.29818,32.673342 l -0.6138,0 c -24.88274,1.133179 -49.10445,-10.340263 -63.55249,-27.243524 -14.44804,-16.856045 -18.55581,-37.819867 -4.29664,-55.856307 l 0,-0.51937 c 9.82089,-14.96741 29.13216,-22.23865 49.95433,-23.23018 z m 16.05338,420.83453 c 1.84142,0 3.73005,-0.0472 4.91044,0 27.14909,0 46.36593,13.88145 54.29819,32.67334 7.97947,18.7919 4.10777,41.73878 -16.61997,58.31153 -13.88145,11.09572 -35.93123,17.3282 -56.80062,16.33667 -20.82217,-0.99153 -39.56685,-8.73492 -49.34052,-23.74955 l -0.61381,-0.47216 c -13.7398,-17.51707 -9.77367,-37.30049 3.68283,-53.92046 13.45651,-16.57275 36.49783,-28.80164 60.48346,-29.17937 z"
       style="color:#000000;text-indent:0;text-transform:none;block-progression:tb;fill:#f2f2f2;fill-opacity:1"
       inkscape:connector-curvature="0" />
    <path
       inkscape:connector-curvature="0"
       style="color:#000000;text-indent:0;text-transform:none;block-progression:tb;fill:#e6e6e6;fill-opacity:1"
       d="m 261.11984,-199.19003 c -46.69643,-0.40133 -94.57327,20.09505 -108.59636,58.36347 -20.86939,46.129844 12.60662,100.097517 69.69053,116.670267 0.18887,0.04722 0.47216,0 0.66103,0 62.27765,22.5219422 139.80602,33.5232264 207.27741,103.355412 l 25.30768,26.251991 -22.80524,23.23018 c -67.70748,69.73775 -144.99976,80.45574 -207.32463,102.83604 -0.14165,0.0944 -0.47216,-0.0472 -0.61381,0 -56.98948,16.47832 -89.99333,70.11548 -69.73775,116.24533 0.0472,0.0944 -0.0944,0.33051 0,0.47216 17.3282,46.64922 85.36619,67.28253 140.0421,54.91199 0.18886,-0.0472 0.47216,0 0.6138,0 55.99796,-9.77368 101.84451,-55.33694 88.86016,-101.37235 -6.42135,-22.75802 -14.58969,-33.28715 -22.19143,-39.56685 -3.82448,-3.16346 -7.12959,-5.14653 -9.2543,-6.94073 -2.17193,-1.7942 -11.14293,-6.84629 -11.14293,-6.84629 5.57146,-4.06056 8.82936,-5.99641 13.59815,-8.971 7.17681,-4.67437 19.64178,-10.38748 35.78959,-17.32821 32.01232,-13.69258 79.1337,-33.09828 133.29023,-64.26072 97.9256,55.66744 225.17221,127.76599 295.52377,167.61613 70.35156,39.85015 146.28073,19.78003 176.0739,1.50751 L 615.00235,105.54554 998.41845,-118.02133 c -58.8309,-36.26174 -129.9144,-20.9166 -174.62777,0.8971 C 724.44861,-60.748547 624.72881,-4.6561628 525.19788,51.530653 479.77627,26.695136 431.04955,3.937115 388.83862,-14.240973 c -16.19503,-6.940724 -28.66,-12.606621 -35.78959,-17.328203 -3.5884,-2.313574 -12.65384,-7.412882 -12.65384,-7.412882 8.26277,-4.816013 17.04491,-13.739801 23.41905,-20.491663 6.37413,-6.799076 13.88144,-16.856044 18.2253,-34.373111 11.37901,-46.318708 -32.90942,-92.023618 -88.86016,-101.882278 -10.85964,-2.39384 -22.52194,-2.74796 -32.10675,-3.46092 z m -6.18527,39.0522 c 20.82218,-0.94432 42.30537,4.72158 56.1396,15.8173 20.72774,16.66718 24.64666,39.56685 16.66718,58.358739 -7.97947,18.791893 -27.14909,32.720558 -54.29818,32.673342 l -0.6138,0 c -24.88274,1.133179 -49.10445,-10.340263 -63.55249,-27.243524 -14.44804,-16.856045 -18.55581,-37.819867 -4.29664,-55.856307 l 0,-0.51937 c 9.82089,-14.96741 29.13216,-22.23865 49.95433,-23.23018 z m 16.05338,420.83453 c 1.84142,0 3.73005,-0.0472 4.91044,0 27.14909,0 46.36593,13.88145 54.29819,32.67334 7.97947,18.7919 4.10777,41.73878 -16.61997,58.31153 -13.88145,11.09572 -35.93123,17.3282 -56.80062,16.33667 -20.82217,-0.99153 -39.56685,-8.73492 -49.34052,-23.74955 l -0.61381,-0.47216 c -13.7398,-17.51707 -9.77367,-37.30049 3.68283,-53.92046 13.45651,-16.57275 36.49783,-28.80164 60.48346,-29.17937 z"
       id="path4314"
       sodipodi:nodetypes="ccccccccccccccccccccscccccccccccccccsccccccccccccccc" />
    <ellipse
       ry="19.773951"
       rx="23.481569"
       cy="99.019249"
       cx="526.05219"
       id="ellipse4378"
       style="opacity:1;fill:#ffffff;fill-opacity:1;stroke:none;stroke-width:10;stroke-miterlimit:4;stroke-dasharray:none;stroke-opacity:1" />
    <ellipse
       style="opacity:1;fill:#002d72;fill-opacity:1;stroke:none;stroke-width:10;stroke-miterlimit:4;stroke-dasharray:none;stroke-opacity:1"
       id="path4224"
       cx="526.44299"
       cy="98.690155"
       rx="23.090769"
       ry="19.444857" />
    <ellipse
       style="opacity:1;fill:#b3b3b3;fill-opacity:1;stroke:none;stroke-width:10;stroke-miterlimit:4;stroke-dasharray:none;stroke-opacity:1"
       id="ellipse4376"
       cx="525.56543"
       cy="95.74897"
       rx="17.070288"
       ry="14.565507" />
    <ellipse
       ry="14.236413"
       rx="16.905743"
       cy="94.91684"
       cx="525.9776"
       id="ellipse4226"
       style="opacity:1;fill:#e6e6e6;fill-opacity:1;stroke:none;stroke-width:10;stroke-miterlimit:4;stroke-dasharray:none;stroke-opacity:1" />
    <text
       transform="matrix(0.87800109,-0.5108879,0.51851136,0.83724135,0,0)"
       sodipodi:linespacing="125%"
       id="text4380"
       y="373.99026"
       x="170.47227"
       style="font-style:normal;font-variant:normal;font-weight:500;font-stretch:normal;font-size:23.96094894px;line-height:125%;font-family:Tuffy;-inkscape-font-specification:'Tuffy, Medium';text-align:start;letter-spacing:0px;word-spacing:0px;writing-mode:lr-tb;text-anchor:start;fill:#ffffff;fill-opacity:1;stroke:none;stroke-width:1px;stroke-linecap:butt;stroke-linejoin:miter;stroke-opacity:1"
       xml:space="preserve"><tspan
         y="373.99026"
         x="170.47227"
         id="tspan4382"
         sodipodi:role="line">openclipart.org</tspan></text>
    <text
       xml:space="preserve"
       style="font-style:normal;font-variant:normal;font-weight:500;font-stretch:normal;font-size:23.96094894px;line-height:125%;font-family:Tuffy;-inkscape-font-specification:'Tuffy, Medium';text-align:start;letter-spacing:0px;word-spacing:0px;writing-mode:lr-tb;text-anchor:start;fill:#cccccc;fill-opacity:1;stroke:none;stroke-width:1px;stroke-linecap:butt;stroke-linejoin:miter;stroke-opacity:1"
       x="170.58395"
       y="373.79355"
       id="text4512"
       sodipodi:linespacing="125%"
       transform="matrix(0.87800109,-0.5108879,0.51851136,0.83724135,0,0)"><tspan
         sodipodi:role="line"
         id="tspan4514"
         x="170.58395"
         y="373.79355">openclipart.org</tspan></text>
    <rect
       transform="matrix(0.94902946,0.31518738,-0.31518738,0.94902946,0,0)"
       y="-88.554504"
       x="527.03595"
       height="26.327517"
       width="1.3163759"
       id="rect4392"
       style="opacity:1;fill:#ffffff;fill-opacity:1;stroke:none;stroke-width:10;stroke-miterlimit:4;stroke-dasharray:none;stroke-opacity:1" />
    <rect
       style="opacity:1;fill:#cccccc;fill-opacity:1;stroke:none;stroke-width:10;stroke-miterlimit:4;stroke-dasharray:none;stroke-opacity:1"
       id="rect4390"
       width="1.3163759"
       height="26.327517"
       x="526.93817"
       y="-88.848976"
       transform="matrix(0.94902946,0.31518738,-0.31518738,0.94902946,0,0)" />
  </g>
</svg>
